<?xml version="1.0" encoding="iso-8859-1"?>
<!-- Generator: Adobe Illustrator 16.0.0, SVG Export Plug-In . SVG Version: 6.00 Build 0)  -->
<!DOCTYPE svg PUBLIC "-//W3C//DTD SVG 1.1//EN" "http://www.w3.org/Graphics/SVG/1.1/DTD/svg11.dtd">
<svg version="1.1" id="Capa_1" xmlns="http://www.w3.org/2000/svg" xmlns:xlink="http://www.w3.org/1999/xlink" x="0px" y="0px"
	 width="379.999px" height="379.999px" viewBox="0 0 379.999 379.999" style="enable-background:new 0 0 379.999 379.999;"
	 xml:space="preserve">
<g>
	<g>
		<g>
			<path d="M179.099,94.233c-8.055,0-15.489,4.167-20.932,11.734c-3.621,5.034-6.055,11.219-7.124,17.907H69.44
				c-4.312,0-7.806,3.495-7.806,7.806c0,4.239,3.383,7.684,7.597,7.793v21.086c0,4.311,3.495,7.805,7.805,7.805
				c4.312,0.001,7.805-3.495,7.805-7.806v-21.073h10.408l-0.001,21.074c0.001,4.311,3.495,7.806,7.807,7.806
				c4.311,0,7.806-3.496,7.806-7.807v-21.073h40.184c1.071,6.688,3.503,12.872,7.124,17.907
				c5.441,7.567,12.876,11.735,20.932,11.734c8.057,0,15.489-4.167,20.93-11.734c5-6.947,7.75-16.079,7.75-25.713
				c0-9.634-2.752-18.766-7.75-25.713C194.588,98.4,187.155,94.232,179.099,94.233z M179.099,154.526
				c-8.036,0-14.828-10.463-14.828-22.847c0-12.381,6.79-22.845,14.828-22.845c8.041,0,14.831,10.464,14.829,22.846
				C193.928,144.063,187.139,154.526,179.099,154.526z"/>
			<path d="M368.088,310.574l-66.061-66.062c-7.292-7.289-16.664-11.221-26.202-11.82l-22.438-22.438
				c33.337-53,26.958-124.013-19.145-170.118c-53.516-53.516-140.592-53.515-194.106,0c-53.515,53.515-53.515,140.591,0.001,194.106
				c46.103,46.104,117.114,52.48,170.116,19.146l22.438,22.438c0.601,9.541,4.532,18.91,11.82,26.199l66.063,66.062
				c15.883,15.883,41.632,15.881,57.514,0C383.968,352.209,383.971,326.459,368.088,310.574z M205.482,205.484
				c-37.656,37.658-98.933,37.658-136.589,0c-37.661-37.66-37.66-98.935-0.001-136.593c37.656-37.659,98.93-37.659,136.59,0.002
				C243.141,106.553,243.142,167.827,205.482,205.484z"/>
		</g>
	</g>
</g>
<g>
</g>
<g>
</g>
<g>
</g>
<g>
</g>
<g>
</g>
<g>
</g>
<g>
</g>
<g>
</g>
<g>
</g>
<g>
</g>
<g>
</g>
<g>
</g>
<g>
</g>
<g>
</g>
<g>
</g>
</svg>
